<svg xmlns="http://www.w3.org/2000/svg" version="1.1" xmlns:xlink="http://www.w3.org/1999/xlink" xmlns:svgjs="http://svgjs.dev/svgjs" width="1000" height="1000" viewBox="0 0 1000 1000"><g transform="matrix(1,0,0,1,-0.14221556886212738,-0.14221556886229791)"><svg viewBox="0 0 334 334" data-background-color="#ffffff" preserveAspectRatio="xMidYMid meet" height="1000" width="1000" xmlns="http://www.w3.org/2000/svg" xmlns:xlink="http://www.w3.org/1999/xlink"><g id="tight-bounds" transform="matrix(1,0,0,1,0.04749999999998522,0.04750000000001364)"><svg viewBox="0 0 333.90454557049503 333.90454557049503" height="333.90454557049503" width="333.90454557049503"><g><svg></svg></g><g><svg viewBox="0 0 333.90454557049503 333.90454557049503" height="333.90454557049503" width="333.90454557049503"><g><path d="M0 166.952c0-92.205 74.747-166.952 166.952-166.952 92.205 0 166.952 74.747 166.953 166.952 0 92.205-74.747 166.952-166.953 166.953-92.205 0-166.952-74.747-166.952-166.953zM166.952 316.63c82.665 0 149.677-67.013 149.678-149.678 0-82.665-67.013-149.677-149.678-149.677-82.665 0-149.677 67.013-149.677 149.677 0 82.665 67.013 149.677 149.677 149.678z" data-fill-palette-color="tertiary" fill="#ed2647" stroke="transparent"></path><ellipse rx="160.27418187383762" ry="160.27418187383762" cx="166.95227278524752" cy="166.95227278524752" fill="#ed2647" stroke="transparent" stroke-width="0" fill-opacity="1" data-fill-palette-color="tertiary"></ellipse></g><g transform="matrix(1,0,0,1,99.72262754687026,71.17305217166896)"><svg viewBox="0 0 134.45929047675452 191.55844122715712" height="191.55844122715712" width="134.45929047675452"><g><svg viewBox="0 0 134.45929047675452 191.55844122715712" height="191.55844122715712" width="134.45929047675452"><g><svg viewBox="0 0 134.45929047675452 191.55844122715712" height="191.55844122715712" width="134.45929047675452"><g><svg viewBox="0 0 134.45929047675452 191.55844122715712" height="191.55844122715712" width="134.45929047675452"><g id="textblocktransform"><svg viewBox="0 0 134.45929047675452 191.55844122715712" height="191.55844122715712" width="134.45929047675452" id="textblock"><g><svg viewBox="0 0 134.45929047675452 191.55844122715712" height="191.55844122715712" width="134.45929047675452"><g transform="matrix(1,0,0,1,0,0)"><svg width="134.45929047675452" viewBox="1.5499999523162842 -25.5 18.25 26" height="191.55844122715712" data-palette-color="#ffffff"><path d="M10 0.5L10 0.5Q7.53 0.5 5.54 0.03 3.55-0.45 1.55-1.35L1.55-1.35 2.1-6.65Q4.03-5.53 5.89-4.84 7.75-4.15 9.8-4.15L9.8-4.15Q11.65-4.15 12.63-4.75 13.6-5.35 13.6-6.65L13.6-6.65Q13.6-7.63 13.09-8.25 12.58-8.88 11.55-9.38 10.53-9.88 9-10.45L9-10.45Q6.7-11.3 5.09-12.3 3.48-13.3 2.64-14.71 1.8-16.13 1.8-18.2L1.8-18.2Q1.8-20.35 2.93-22 4.05-23.65 6.13-24.58 8.2-25.5 11.05-25.5L11.05-25.5Q13.43-25.5 15.31-24.98 17.2-24.45 18.8-23.55L18.8-23.55 18.25-18.25Q16.57-19.43 14.88-20.19 13.18-20.95 11.15-20.95L11.15-20.95Q9.55-20.95 8.68-20.3 7.8-19.65 7.8-18.45L7.8-18.45Q7.8-17 9.03-16.28 10.25-15.55 12.95-14.5L12.95-14.5Q14.7-13.83 15.99-13.1 17.28-12.38 18.13-11.5 18.98-10.63 19.39-9.51 19.8-8.4 19.8-6.95L19.8-6.95Q19.8-4.58 18.66-2.91 17.53-1.25 15.34-0.38 13.15 0.5 10 0.5Z" opacity="1" transform="matrix(1,0,0,1,0,0)" fill="#ffffff" class="wordmark-text-0" data-fill-palette-color="quaternary" id="text-0"></path></svg></g></svg></g></svg></g></svg></g></svg></g></svg></g></svg></g></svg></g><defs></defs></svg><rect width="333.90454557049503" height="333.90454557049503" fill="none" stroke="none" visibility="hidden"></rect></g></svg></g></svg>